<svg width="22" height="22" viewBox="0 0 22 22" fill="none" xmlns="http://www.w3.org/2000/svg">
<path d="M18.3333 6.41667C18.3333 5.91041 18.7437 5.5 19.2499 5.5C19.7562 5.5 20.1666 5.91041 20.1666 6.41667C20.1666 6.92293 19.7562 7.33333 19.2499 7.33333C18.7437 7.33333 18.3333 6.92293 18.3333 6.41667Z" />
<path d="M1.83325 6.41667C1.83325 5.91041 2.24366 5.5 2.74992 5.5C3.25618 5.5 3.66659 5.91041 3.66659 6.41667C3.66659 6.92293 3.25618 7.33333 2.74992 7.33333C2.24366 7.33333 1.83325 6.92293 1.83325 6.41667Z" />
<path d="M15.5833 5.5001H19.25V7.33344H18.3333V19.2501C18.3333 19.4932 18.2368 19.7264 18.0648 19.8983C17.8929 20.0702 17.6598 20.1668 17.4167 20.1668H4.58333C4.34022 20.1668 4.10706 20.0702 3.93515 19.8983C3.76324 19.7264 3.66667 19.4932 3.66667 19.2501V7.33344H2.75V5.5001H6.41667V2.7501C6.41667 2.50699 6.51324 2.27383 6.68515 2.10192C6.85706 1.93001 7.09022 1.83344 7.33333 1.83344H14.6667C14.9098 1.83344 15.1429 1.93001 15.3148 2.10192C15.4868 2.27383 15.5833 2.50699 15.5833 2.7501V5.5001ZM16.5 7.33344H5.5V18.3334H16.5V7.33344ZM12.2962 12.8334L13.9168 14.4541L12.6207 15.7503L11 14.1296L9.37933 15.7503L8.08317 14.4541L9.70383 12.8334L8.08317 11.2128L9.37933 9.9166L11 11.5373L12.6207 9.9166L13.9168 11.2128L12.2962 12.8334ZM8.25 3.66677V5.5001H13.75V3.66677H8.25Z" />
</svg>
