<svg width="20" height="20" viewBox="0 0 20 20" fill="none" xmlns="http://www.w3.org/2000/svg">
<path d="M16.6667 1.66644C17.1267 1.66644 17.5 2.03978 17.5 2.49978V5.63061L15.8333 7.29728V3.33311H4.16667V16.6664H15.8333V14.3681L17.5 12.7014V17.4998C17.5 17.9598 17.1267 18.3331 16.6667 18.3331H3.33333C2.87333 18.3331 2.5 17.9598 2.5 17.4998V2.49978C2.5 2.03978 2.87333 1.66644 3.33333 1.66644H16.6667ZM18.1483 7.33978L19.3267 8.51811L12.845 14.9998L11.665 14.9981L11.6667 13.8214L18.1483 7.33978ZM10.8333 9.99978V11.6664H6.66667V9.99978H10.8333ZM13.3333 6.66644V8.33311H6.66667V6.66644H13.3333Z" />
</svg>
